<svg width="30" height="30" viewBox="0 0 30 30" fill="none" xmlns="http://www.w3.org/2000/svg">
<g clip-path="url(#clip0_3_22551)">
<path d="M29.4832 24.8271H0.517753C0.232109 24.8271 0.000488281 24.5954 0.000488281 24.3098V5.68914C0.000488281 5.4035 0.232109 5.17188 0.517753 5.17188H29.4832C29.7689 5.17188 30.0005 5.4035 30.0005 5.68914V24.3098C30.0004 24.5955 29.7688 24.8271 29.4832 24.8271Z" fill="#FF5352"/>
<path d="M7.77678 15.0004C7.77678 17.2874 9.63021 19.1408 11.9151 19.1408C12.7666 19.1408 13.5518 18.8792 14.2058 18.4357C14.3049 18.3685 14.4194 18.498 14.3365 18.5843C13.3981 19.5617 12.0841 20.1729 10.622 20.1729C7.65391 20.1729 5.26997 17.6708 5.46256 14.6601C5.63079 12.0316 7.81 9.92102 10.4424 9.8312C11.9746 9.77887 13.3565 10.3982 14.3329 11.4133C14.4166 11.5004 14.3024 11.6318 14.2024 11.564C13.5491 11.1215 12.7651 10.8601 11.9151 10.8601C9.63027 10.8601 7.77678 12.7178 7.77678 15.0004Z" fill="#F4F4F4"/>
<path d="M17.2093 14.2888L16.3985 13.2282C16.3532 13.1689 16.2584 13.2015 16.2591 13.2761L16.2709 14.611L15.0117 15.0544C14.9413 15.0792 14.943 15.1793 15.0142 15.2017L16.2874 15.603L16.3199 16.9376C16.3217 17.0122 16.4176 17.0416 16.4609 16.9808L17.236 15.8939L18.5153 16.2754C18.5868 16.2967 18.6443 16.2148 18.5999 16.1548L17.8057 15.0817L18.5638 13.9829C18.6062 13.9215 18.546 13.8414 18.4752 13.8651L17.2093 14.2888Z" fill="#F4F4F4"/>
</g>
<defs>
<clipPath id="clip0_3_22551">
<rect width="30" height="30" fill="white"/>
</clipPath>
</defs>
</svg>
